<svg width="1680" height="3" viewBox="0 0 1680 3" fill="none" xmlns="http://www.w3.org/2000/svg">
<path fill-rule="evenodd" clip-rule="evenodd" d="M1680 0H-0.00012207V2.03733C1.10518 2.15767 1.71602 2.03733 2.87073 2.03733C3.83656 1.80498 3.66071 1.9197 4.67639 1.79937C5.99081 1.61887 5.36919 2.03733 6.54211 1.61617C7.44979 1.66531 8.31929 1.73372 9.15356 1.79937C10.8728 1.93465 12.4427 2.05819 13.8909 1.97717C14.0217 1.96861 14.1527 1.95996 14.2838 1.9513C16.4586 1.80768 18.67 1.66165 20.6422 1.917C22.0497 2.09621 23.2644 1.94898 24.4524 1.80498C25.4581 1.68308 26.4447 1.5635 27.5129 1.64625C28.0208 1.67633 32.3824 1.67633 33.8163 1.58608C33.9358 1.69137 34.0476 1.79667 34.1597 1.90196C34.2717 2.00725 34.3838 2.11255 34.5033 2.21784C34.782 2.19521 35.0613 2.1753 35.3384 2.15555C36.9028 2.04406 38.3948 1.93774 39.2831 1.3755C39.2994 1.35903 39.3963 1.3696 39.5149 1.38255C39.613 1.39326 39.726 1.40559 39.8207 1.40559C39.7092 1.50181 39.5977 1.58948 39.4681 1.69138C39.3546 1.78065 39.2272 1.88083 39.0737 2.00726C40.0715 2.00726 41.052 2.01303 42.0206 2.01874C44.8802 2.03559 47.6363 2.05183 50.4257 1.917C53.0491 1.78707 55.7034 1.73508 58.3888 1.68249C59.434 1.66202 60.4839 1.64146 61.5385 1.61617C61.3891 2.00725 61.2994 2.24792 61.15 2.66908C63.3527 1.42691 63.4476 1.43503 66.7997 1.72151L66.9753 1.73651C67.6325 1.79667 68.4389 1.76659 69.0663 1.67634C69.2398 1.65516 69.408 1.62931 69.571 1.60422C70.3344 1.48678 70.9902 1.38587 71.6056 1.85683C71.7311 1.9622 72.4577 1.96423 73.2102 1.96634C73.532 1.96724 73.8585 1.96816 74.1448 1.97717C74.0523 1.86856 73.9917 1.78396 73.9424 1.71511C73.896 1.65046 73.8597 1.59971 73.8163 1.556C75.4593 1.195 76.5645 1.46575 77.2815 2.12758C79.044 1.3755 81.0455 1.195 83.3457 1.34542C83.8834 1.38152 84.4212 1.42724 84.9589 1.47297C85.7654 1.54156 86.572 1.61015 87.3785 1.64625C88.2804 1.66813 89.1862 1.62634 90.0917 1.58456C91.6756 1.51147 93.2583 1.43844 94.8169 1.70642C94.9663 1.7365 95.2351 1.73651 95.3546 1.67634C96.446 1.3593 97.6111 1.42835 98.7775 1.49747C99.2712 1.52673 99.7651 1.556 100.254 1.556C100.462 1.556 100.68 1.56262 100.899 1.56927C101.34 1.58267 101.786 1.59622 102.166 1.556C103.628 1.34225 105.09 1.40976 106.552 1.47726C106.942 1.49526 107.332 1.51326 107.722 1.52592C107.809 1.52874 107.898 1.53102 107.989 1.53335C108.871 1.5559 109.897 1.58213 109.843 2.12758C109.843 2.16714 110.347 2.2197 111.057 2.29381C111.427 2.33242 111.853 2.37689 112.293 2.42842C110.827 1.76955 111.792 1.59554 112.536 1.46139C112.641 1.44241 112.742 1.42423 112.83 1.40559C113.697 1.22509 114.683 1.61618 115.31 2.27801L119.522 2.21784C118.939 2.04751 118.534 1.9248 118.187 1.81976C117.983 1.75783 117.798 1.70204 117.61 1.64625C118.384 1.58854 119.157 1.60002 119.898 1.61101C120.702 1.62294 121.467 1.63429 122.151 1.556C123.449 1.39596 124.418 1.51972 125.474 1.65468C125.61 1.67193 125.746 1.68937 125.885 1.70642C127.289 1.88692 128.753 2.03734 130.246 2.06742C131.248 2.08844 132.25 2.03603 133.283 1.98201C133.728 1.95872 134.179 1.93513 134.638 1.917C134.708 1.82315 134.814 1.69269 134.985 1.48282C135.033 1.42361 135.086 1.35807 135.146 1.28525C136.072 1.85683 136.878 2.24792 138.491 1.88692C138.602 1.86468 138.908 1.95757 139.193 2.04398C139.294 2.07443 139.392 2.10407 139.477 2.12758C139.884 2.21533 140.29 2.30308 140.724 2.39083C140.707 2.39332 140.69 2.39582 140.672 2.39833H140.762C140.749 2.39583 140.737 2.39333 140.724 2.39083C141.176 2.3266 141.637 2.27075 142.106 2.21385C142.489 2.16745 142.877 2.12035 143.271 2.06742C143.392 1.95657 143.513 1.84163 143.642 1.71959C143.862 1.51045 144.104 1.28047 144.406 1.0145C144.693 1.14018 144.939 1.2501 145.168 1.35305C145.489 1.49653 145.779 1.62646 146.109 1.76659C146.535 1.72575 146.957 1.67799 147.378 1.63035C148.198 1.53761 149.014 1.44534 149.843 1.40559C150.085 1.39223 150.326 1.37812 150.567 1.36406C152.491 1.25147 154.37 1.1415 156.415 1.43567C158.552 1.7238 160.664 1.53358 162.782 1.34275C163.982 1.23472 165.183 1.1265 166.393 1.10475C167 1.09085 167.486 1.17976 167.934 1.2616C168.455 1.35683 168.923 1.4425 169.47 1.34542C170.518 1.16942 171.471 1.21867 172.456 1.2696C172.818 1.28832 173.185 1.30726 173.562 1.31534C174.386 1.33938 175.209 1.30581 176.034 1.27216C177.275 1.22157 178.52 1.17081 179.776 1.31534C181.224 0.761264 182.756 1.02698 183.801 1.20819L183.898 1.22508C184.101 1.18873 184.282 1.15413 184.447 1.12256C184.966 1.02353 185.328 0.954334 185.691 0.954334C185.858 0.954334 186.044 0.993483 186.229 1.03228C186.441 1.07678 186.65 1.12082 186.826 1.10475C189.544 0.864083 190.53 0.894172 192.89 1.13484C193.439 1.19408 194.053 1.14963 194.688 1.10358C195.021 1.07948 195.359 1.05493 195.698 1.04459C196.274 1.10565 196.867 1.16671 197.472 1.22893C198.654 1.35065 199.88 1.47682 201.105 1.61617C201.808 1.38978 202.59 1.13677 203.401 0.857142H205.719C207.649 1.08022 209.543 1.30521 211.591 1.556C211.722 1.52431 211.855 1.48706 211.992 1.44848C212.639 1.2673 213.391 1.05676 214.548 1.25517C214.19 1.37551 213.951 1.46575 213.562 1.61617C214.225 1.65226 214.856 1.68836 215.487 1.72445C215.908 1.74853 216.328 1.7726 216.759 1.79667C216.735 1.73236 216.713 1.67449 216.693 1.62077C216.637 1.47347 216.593 1.35735 216.55 1.22508C217.593 1.25511 218.518 1.28515 219.442 1.31518L219.447 1.31534C219.865 1.64626 220.463 1.91701 221.21 2.00726C222.011 2.08958 222.141 1.91958 222.29 1.72413C222.414 1.56248 222.551 1.38343 223.092 1.31534C223.312 1.33013 223.549 1.34856 223.797 1.36794C224.561 1.42739 225.439 1.49584 226.318 1.49584C227.603 1.51088 228.895 1.51088 230.187 1.51088C231.479 1.51088 232.771 1.51088 234.055 1.52592C234.571 1.52592 235.173 1.58194 235.747 1.6353C236.568 1.71165 237.33 1.78258 237.7 1.67634C239.077 1.24757 239.741 1.5166 240.289 1.73885C240.395 1.78169 240.496 1.8228 240.597 1.85683C244.361 1.43566 247.767 1.25517 251.202 1.88692H251.232C252.457 2.12759 253.622 2.15767 254.638 1.73651C254.818 1.79696 255 1.85246 255.178 1.90656C255.62 2.04089 256.034 2.16659 256.311 2.33816C256.639 2.54875 256.4 2.69917 255.683 2.69917C255.828 2.72834 255.976 2.76692 256.125 2.8058C256.437 2.88723 256.754 2.96992 257.057 2.96992C259.656 2.96992 262.255 2.93984 264.854 2.90976L264.854 2.84959C263.764 2.84959 262.666 2.84207 261.568 2.83455C260.47 2.82703 259.373 2.81951 258.282 2.81951C258.163 2.78942 258.036 2.75934 257.909 2.72926C257.782 2.69917 257.655 2.66909 257.535 2.639C259.349 2.41711 259.037 2.04025 258.734 1.67329C258.502 1.3935 258.275 1.11947 258.999 0.924256C260.254 1.34542 261.419 1.7365 262.375 2.03733C262.755 1.98257 263.093 1.91585 263.395 1.85604C263.923 1.75156 264.344 1.66815 264.705 1.70642C265.255 1.74601 265.788 1.83771 266.314 1.92818C266.987 2.04393 267.649 2.15767 268.32 2.15767C268.939 2.15767 269.55 2.04454 270.162 1.93136C270.73 1.82616 271.299 1.72091 271.875 1.70642C274.234 1.67633 276.624 1.76658 279.014 1.85683C279.21 1.85683 279.392 1.94694 279.604 2.05137C279.716 2.10659 279.836 2.16582 279.97 2.21784C281.314 1.70642 282.778 1.67634 284.361 1.94709C285.7 1.58148 286.987 1.77129 288.196 1.94961C288.579 2.00605 288.954 2.06134 289.32 2.0975C291.621 2.33817 293.831 2.48859 296.191 2.36825C297.227 2.30946 298.271 2.25785 299.311 2.20641C300.399 2.15255 301.485 2.09888 302.554 2.03733C302.857 2.02017 303.164 2.00057 303.475 1.98069C305.348 1.86121 307.372 1.73212 309.395 2.06742C310.566 2.26403 312.128 2.19841 313.522 2.13987C313.621 2.1357 313.719 2.13158 313.816 2.12758H313.906C316.475 1.85683 319.283 1.79667 322.121 2.0975C322.993 2.05186 323.874 2.07979 324.746 2.10743C326.173 2.15266 327.574 2.19709 328.872 1.917C328.883 1.917 328.906 1.92103 328.935 1.92614C328.986 1.935 329.054 1.94709 329.111 1.94709C329.515 1.96244 329.917 1.97976 330.319 1.99703C331.489 2.04744 332.652 2.0975 333.831 2.0975C335.056 2.0975 336.281 2.06742 337.476 2.00726C338.073 2.0223 338.678 2.03734 339.283 2.05238C339.888 2.06742 340.493 2.08246 341.09 2.0975C342.251 2.0975 343.429 2.0471 344.611 1.99652C345.01 1.97941 345.41 1.96229 345.81 1.94709C345.849 1.94709 345.895 1.93552 345.935 1.92506C345.987 1.91167 346.033 1.90011 346.049 1.917C347.36 2.21034 348.785 2.16821 350.233 2.12537C351.459 2.08914 352.701 2.0524 353.906 2.21784C354.22 2.21784 354.526 2.21032 354.832 2.20279C355.138 2.19527 355.444 2.18775 355.758 2.18775C356.654 2.18775 357.521 2.21784 358.387 2.27801C358.748 2.08196 359.395 2.09449 360.784 2.12143C360.887 2.12343 360.994 2.12551 361.105 2.12758C361.202 2.13158 361.301 2.1357 361.4 2.13987C362.793 2.19841 364.355 2.26403 365.526 2.06742C367.55 1.73211 369.573 1.86121 371.446 1.98069C371.758 2.00057 372.065 2.02017 372.367 2.03733C373.437 2.09888 374.522 2.15255 375.611 2.20641C376.651 2.25785 377.694 2.30946 378.73 2.36825C381.09 2.48859 383.301 2.30809 385.601 2.0975C385.966 2.06147 386.341 2.00645 386.725 1.95022C387.942 1.77172 389.242 1.58106 390.56 1.94709C392.113 1.67634 393.577 1.70642 394.951 2.21784C395.086 2.16582 395.206 2.10659 395.318 2.05137C395.529 1.94694 395.712 1.85683 395.907 1.85683C398.297 1.76658 400.687 1.67633 403.047 1.70642C403.626 1.721 404.205 1.82749 404.781 1.93335C405.393 2.04586 406.002 2.15767 406.602 2.15767C407.299 2.15767 407.977 2.04072 408.657 1.92331C409.172 1.83444 409.689 1.7453 410.217 1.70642C410.587 1.68677 411.035 1.76981 411.583 1.87169C411.875 1.92578 412.194 1.98517 412.547 2.03733C413.045 1.87541 413.613 1.68733 414.231 1.48249C414.762 1.30677 415.329 1.11872 415.922 0.924256C416.649 1.13324 416.418 1.41029 416.185 1.6889C415.882 2.05198 415.578 2.41772 417.386 2.639C417.267 2.66909 417.14 2.69917 417.013 2.72926C416.886 2.75934 416.759 2.78942 416.639 2.81951C415.549 2.81951 414.451 2.82703 413.353 2.83455C412.255 2.84207 411.158 2.84959 410.067 2.84959V2.90975C412.666 2.93984 415.265 2.96992 417.864 2.96992C418.167 2.96992 418.484 2.88723 418.797 2.80581C418.946 2.76693 419.093 2.72834 419.238 2.69917C418.491 2.69917 418.252 2.51866 418.611 2.33816C418.855 2.2057 419.194 2.09705 419.575 1.97477C419.8 1.90265 420.04 1.82579 420.284 1.73651C421.299 2.15767 422.464 2.12759 423.659 1.88692H423.689C427.125 1.25517 430.56 1.43566 434.294 1.85683C434.396 1.8228 434.497 1.78169 434.603 1.73885C435.151 1.5166 435.815 1.24757 437.192 1.67634C437.588 1.80933 438.437 1.72635 439.325 1.63957C439.843 1.58894 440.374 1.53701 440.836 1.52592C442.121 1.51088 443.413 1.51088 444.705 1.51088C445.997 1.51088 447.289 1.51088 448.574 1.49584C449.614 1.46898 450.678 1.39417 451.51 1.33562C451.61 1.32859 451.707 1.32179 451.8 1.31534C452.341 1.38343 452.477 1.56248 452.601 1.72413C452.751 1.91958 452.881 2.08958 453.682 2.00726C454.429 1.91701 455.026 1.67634 455.444 1.31534L455.449 1.31518C456.374 1.28515 457.298 1.25511 458.342 1.22508C458.298 1.35735 458.254 1.47347 458.199 1.62077C458.179 1.67449 458.157 1.73236 458.133 1.79667C458.563 1.7726 458.984 1.74853 459.405 1.72445C460.035 1.68836 460.666 1.65226 461.329 1.61617C460.971 1.49584 460.732 1.40559 460.344 1.25517C461.522 1.07835 462.28 1.28331 462.935 1.46044C463.06 1.49426 463.181 1.52706 463.301 1.556C465.321 1.30521 467.213 1.08022 469.167 0.857142H471.507C472.312 1.11015 473.088 1.36316 473.786 1.61617C475.054 1.49262 476.322 1.35497 477.542 1.22253C478.104 1.16148 478.656 1.10154 479.193 1.04459C479.532 1.05493 479.871 1.07948 480.204 1.10358C480.839 1.14963 481.452 1.19408 482.001 1.13484C484.361 0.894172 485.347 0.864083 488.066 1.10475C488.241 1.12082 488.451 1.07678 488.663 1.03228C488.848 0.993482 489.034 0.954334 489.201 0.954334C489.483 0.972104 489.766 1.02136 490.122 1.08351C490.369 1.12657 490.651 1.17583 490.993 1.22508L491.137 1.20085C492.204 1.01999 493.687 0.768698 495.116 1.31534C496.371 1.17081 497.617 1.22157 498.857 1.27216C499.683 1.30581 500.506 1.33938 501.329 1.31534C501.706 1.30726 502.073 1.28832 502.435 1.2696C503.421 1.21867 504.373 1.16942 505.422 1.34542C505.962 1.42545 506.435 1.34368 506.953 1.25415C507.408 1.17541 507.898 1.09067 508.499 1.10475C509.719 1.12651 510.929 1.23874 512.131 1.35041C514.255 1.54756 516.36 1.74294 518.476 1.43567C520.521 1.1415 522.401 1.25147 524.325 1.36406C524.565 1.37812 524.806 1.39223 525.048 1.40559C525.877 1.44534 526.693 1.53761 527.513 1.63035C527.935 1.67799 528.357 1.72575 528.783 1.76659C529.32 1.52592 529.798 1.31534 530.485 1.0145C530.933 1.43567 531.292 1.76659 531.621 2.06742C531.884 2.10167 532.14 2.13592 532.392 2.16948C533.002 2.25102 533.581 2.32846 534.16 2.39186C534.15 2.39401 534.14 2.39617 534.13 2.39833H534.219C534.2 2.39619 534.18 2.39403 534.16 2.39186C534.212 2.38058 534.265 2.3693 534.318 2.35795C534.681 2.28056 535.058 2.19993 535.414 2.0975C535.532 2.06798 535.662 2.0288 535.789 1.99049C536.05 1.91169 536.3 1.83659 536.4 1.85683C538.013 2.18775 538.82 1.82676 539.746 1.25517C539.805 1.32813 539.859 1.39378 539.907 1.45309C540.078 1.66276 540.184 1.79312 540.254 1.88692C540.713 1.90505 541.164 1.92863 541.609 1.95192C542.641 2.00594 543.643 2.05835 544.645 2.03733C546.109 2.00725 547.603 1.85684 549.007 1.67634C549.165 1.65739 549.319 1.63796 549.471 1.61883C550.524 1.48617 551.462 1.36817 552.741 1.52592C553.425 1.6042 554.182 1.59286 554.977 1.58094C555.711 1.56995 556.478 1.55846 557.252 1.61617L557.25 1.61652C556.743 1.76682 556.235 1.91721 555.34 2.18775L559.552 2.24792C560.179 1.58608 561.165 1.195 562.031 1.3755C562.12 1.39414 562.221 1.41232 562.326 1.4313C563.07 1.56545 564.035 1.73947 562.569 2.39833C563.009 2.3468 563.435 2.30233 563.805 2.26372C564.515 2.18961 565.019 2.13706 565.019 2.0975C564.993 1.5902 565.86 1.55341 566.688 1.51828C566.842 1.51175 566.994 1.50527 567.14 1.49584C567.531 1.48312 567.921 1.46502 568.311 1.44694C569.765 1.37952 571.212 1.31241 572.696 1.52592C573.072 1.58578 573.501 1.56624 573.939 1.54629C574.162 1.53616 574.386 1.52592 574.608 1.52592C575.096 1.52592 575.591 1.49665 576.084 1.46739C577.251 1.39826 578.416 1.32922 579.507 1.64625C579.627 1.67633 579.895 1.67634 580.045 1.67634C581.622 1.40832 583.201 1.48142 584.778 1.55451C585.68 1.59628 586.582 1.63805 587.483 1.61617C588.559 1.5921 589.634 1.49103 590.709 1.38995C590.978 1.36468 591.247 1.33941 591.516 1.31534C593.816 1.13484 595.818 1.31534 597.58 2.0975C598.297 1.43567 599.403 1.16492 601.046 1.52592C601.002 1.56963 600.966 1.6204 600.919 1.68505C600.87 1.7539 600.809 1.83849 600.717 1.94709C601.003 1.93808 601.33 1.93716 601.651 1.93626C602.404 1.93415 603.131 1.93212 603.256 1.82675C603.899 1.33438 604.565 1.44473 605.386 1.58091C605.518 1.60282 605.655 1.6254 605.795 1.64625C606.423 1.7365 607.229 1.76658 607.886 1.70642C611.411 1.3755 611.471 1.37551 613.712 2.639C613.562 2.21784 613.473 1.97716 613.323 1.58608C614.378 1.61136 615.428 1.63192 616.473 1.65239C619.158 1.70499 621.813 1.75699 624.436 1.88692C627.162 2.04064 629.856 2.01803 632.646 1.99461C633.678 1.98594 634.723 1.97717 635.788 1.97717C635.634 1.85068 635.507 1.75045 635.393 1.66115C635.264 1.5593 635.152 1.47167 635.041 1.3755C635.136 1.3755 635.249 1.36317 635.347 1.35247C635.465 1.33952 635.562 1.32896 635.579 1.34542C636.467 1.90766 637.959 2.01397 639.523 2.12545C639.8 2.1452 640.08 2.16511 640.359 2.18775C640.597 1.97717 640.836 1.76659 641.046 1.556C642.479 1.64625 646.841 1.67634 647.349 1.61617C648.417 1.53342 649.404 1.653 650.409 1.7749C651.597 1.9189 652.812 2.06613 654.22 1.88692C656.192 1.63157 658.403 1.7776 660.578 1.92122L660.971 1.94709C662.494 2.03734 664.137 1.917 665.96 1.76659C667.722 1.52592 669.694 1.3755 671.875 1.3755C672.442 1.3755 672.98 1.3755 673.518 1.40559C676.206 1.49584 678.357 1.79667 680.03 2.24792C680.224 2.24792 680.411 2.2404 680.597 2.23288C680.784 2.22536 680.971 2.21784 681.165 2.21784H681.195C681.075 2.03734 680.836 1.82675 680.508 1.61617C681.416 1.66532 682.285 1.73373 683.119 1.79937C684.838 1.93465 686.408 2.05819 687.857 1.97717L688.25 1.9513C690.424 1.80768 692.636 1.66165 694.608 1.917C696.015 2.09621 697.23 1.94898 698.418 1.80498C699.424 1.68308 700.41 1.5635 701.479 1.64625C701.987 1.67633 706.348 1.67633 707.782 1.58608C707.901 1.69137 708.013 1.79667 708.125 1.90196C708.238 2.00725 708.35 2.11255 708.469 2.21784C708.748 2.19521 709.027 2.1753 709.304 2.15555C710.869 2.04406 712.36 1.93775 713.249 1.3755C713.265 1.35903 713.362 1.3696 713.481 1.38255C713.579 1.39326 713.692 1.40559 713.786 1.40559C713.675 1.50176 713.563 1.5894 713.434 1.69124C713.32 1.78054 713.193 1.88077 713.04 2.00726C714.037 2.00726 715.018 2.01303 715.986 2.01874C718.846 2.03559 721.602 2.05183 724.391 1.917C727.015 1.78707 729.669 1.73508 732.354 1.68249C733.4 1.66202 734.45 1.64146 735.504 1.61617C735.355 2.00725 735.265 2.24792 735.116 2.66908C737.318 1.42691 737.413 1.43503 740.765 1.72151L740.941 1.73651C741.598 1.79667 742.405 1.76659 743.032 1.67634C743.206 1.65516 743.374 1.62931 743.537 1.60422C744.3 1.48678 744.956 1.38587 745.571 1.85683C745.697 1.9622 746.423 1.96423 747.176 1.96634C747.498 1.96724 747.824 1.96816 748.11 1.97717C748.018 1.86855 747.957 1.78394 747.908 1.71508C747.862 1.65045 747.825 1.5997 747.782 1.556C749.425 1.195 750.53 1.46575 751.247 2.12758C753.01 1.3755 755.011 1.195 757.311 1.34542C757.849 1.38152 758.387 1.42724 758.924 1.47297C759.731 1.54156 760.538 1.61015 761.344 1.64625C762.246 1.66813 763.152 1.62634 764.057 1.58456C765.641 1.51147 767.224 1.43844 768.783 1.70642C768.932 1.7365 769.201 1.73651 769.32 1.67634C770.412 1.3593 771.577 1.42835 772.743 1.49747C773.237 1.52673 773.731 1.556 774.22 1.556C774.428 1.556 774.645 1.56262 774.865 1.56927C775.306 1.58267 775.752 1.59622 776.131 1.556C777.594 1.34225 779.056 1.40976 780.518 1.47726C780.908 1.49526 781.298 1.51326 781.688 1.52592C781.774 1.52874 781.864 1.53102 781.955 1.53335C782.837 1.5559 783.863 1.58213 783.809 2.12758C783.809 2.16714 784.312 2.2197 785.022 2.29381C785.392 2.33242 785.818 2.37689 786.258 2.42842C784.793 1.76955 785.757 1.59554 786.501 1.46139C786.606 1.44241 786.707 1.42423 786.796 1.40559C787.662 1.22509 788.648 1.61618 789.276 2.27801L793.488 2.21784C792.905 2.04746 792.5 1.92473 792.153 1.81967C791.948 1.75777 791.764 1.70201 791.576 1.64625C792.349 1.58854 793.123 1.60002 793.864 1.61101C794.667 1.62293 795.432 1.63429 796.116 1.556C797.414 1.39596 798.383 1.51972 799.44 1.65468C799.575 1.67193 799.712 1.68937 799.851 1.70642C801.255 1.88692 802.718 2.03734 804.212 2.06742C805.214 2.08844 806.216 2.03603 807.248 1.98201C807.693 1.95872 808.144 1.93513 808.603 1.917C808.673 1.8232 808.779 1.69284 808.95 1.48317C808.999 1.42386 809.052 1.35821 809.111 1.28525C810.037 1.85683 810.844 2.24792 812.457 1.88692C812.567 1.86468 812.874 1.95756 813.159 2.04397C813.259 2.07442 813.357 2.10406 813.443 2.12758C813.851 2.21573 814.26 2.30389 814.696 2.42008C814.677 2.42284 814.657 2.42563 814.638 2.42842H814.727C814.717 2.42562 814.707 2.42284 814.696 2.42008C815.146 2.3562 815.605 2.30059 816.072 2.24393C816.454 2.19753 816.843 2.15043 817.237 2.0975C817.565 1.79667 817.924 1.46576 818.372 1.04459C818.659 1.17034 818.905 1.28031 819.134 1.38331C819.454 1.52672 819.744 1.6566 820.075 1.79667C820.5 1.75584 820.923 1.70807 821.344 1.66043C822.164 1.56769 822.98 1.47542 823.809 1.43567C824.051 1.42231 824.292 1.4082 824.532 1.39414C826.456 1.28156 828.336 1.17158 830.381 1.46576C832.517 1.75389 834.629 1.56367 836.748 1.37284C837.947 1.26481 839.149 1.15659 840.358 1.13484C840.966 1.12093 841.452 1.20984 841.9 1.29168C842.421 1.38691 842.889 1.47258 843.435 1.3755C844.484 1.1995 845.437 1.24875 846.422 1.29968C846.784 1.3184 847.151 1.33734 847.528 1.34542C848.351 1.36945 849.175 1.33588 850 1.30224C851.241 1.25165 852.486 1.20089 853.742 1.34542C855.19 0.791354 856.722 1.05706 857.766 1.23827L857.864 1.25517C858.066 1.2188 858.248 1.18419 858.413 1.15261C858.932 1.0536 859.294 0.984425 859.656 0.984425C859.823 0.984425 860.01 1.02357 860.194 1.06237C860.406 1.10687 860.616 1.15091 860.792 1.13484C863.51 0.894172 864.496 0.924251 866.856 1.16492C867.405 1.22415 868.018 1.17971 868.654 1.13366C868.986 1.10955 869.325 1.08501 869.664 1.07467C870.24 1.13575 870.833 1.19682 871.438 1.25906C872.62 1.38076 873.846 1.50692 875.071 1.64625C875.799 1.41177 876.611 1.14873 877.454 0.857142H879.424C881.445 1.09012 883.417 1.32401 885.556 1.58608C885.687 1.55439 885.82 1.51714 885.958 1.47856C886.605 1.29737 887.356 1.08684 888.514 1.28525C888.155 1.40559 887.916 1.49583 887.528 1.64625C888.191 1.68234 888.822 1.71844 889.453 1.75453C889.873 1.77861 890.294 1.80268 890.724 1.82675C890.701 1.76255 890.679 1.70477 890.658 1.65113C890.603 1.50369 890.559 1.38752 890.515 1.25517C891.561 1.28526 892.487 1.31534 893.413 1.34542C893.831 1.67634 894.429 1.94708 895.176 2.03733C895.977 2.11966 896.107 1.94965 896.256 1.7542C896.38 1.59256 896.517 1.41351 897.057 1.34542C897.278 1.36021 897.514 1.37864 897.763 1.39802C898.526 1.45748 899.405 1.52592 900.284 1.52592C901.568 1.54097 902.86 1.54097 904.152 1.54096C905.444 1.54096 906.736 1.54096 908.021 1.556C908.488 1.56721 909.026 1.616 909.55 1.66348C910.431 1.74344 911.272 1.81967 911.665 1.70642C913.043 1.27765 913.706 1.54669 914.255 1.76895C914.36 1.81179 914.462 1.85289 914.563 1.88692C918.327 1.46575 921.733 1.28525 925.168 1.917H925.198C926.393 2.15767 927.588 2.18775 928.603 1.76659C928.784 1.82704 928.966 1.88254 929.144 1.93664C929.586 2.07098 929.999 2.19668 930.276 2.36825C930.605 2.57884 930.366 2.75933 929.649 2.72925C929.794 2.75842 929.942 2.79702 930.091 2.8359C930.403 2.91732 930.72 3 931.023 3C933.622 3 936.221 2.96992 938.82 2.93983V2.87966C937.73 2.87966 936.632 2.87214 935.534 2.86462C934.436 2.8571 933.338 2.84959 932.248 2.84959C932.128 2.8195 932.002 2.78942 931.875 2.75933C931.748 2.72925 931.621 2.69917 931.501 2.66908C933.315 2.44718 933.003 2.07033 932.699 1.70337C932.468 1.42358 932.241 1.14955 932.965 0.954334L932.967 0.954923C934.221 1.37587 935.385 1.76673 936.341 2.06742C936.721 2.01266 937.058 1.94594 937.36 1.88613C937.888 1.78164 938.31 1.69824 938.671 1.73651C939.221 1.7761 939.754 1.8678 940.28 1.95827C940.953 2.07402 941.615 2.18775 942.285 2.18775C942.905 2.18775 943.516 2.07462 944.127 1.96144C944.696 1.85624 945.265 1.751 945.84 1.73651C948.2 1.70642 950.59 1.79667 952.98 1.88692C953.175 1.88692 953.358 1.97702 953.569 2.08145C953.681 2.13667 953.801 2.19589 953.936 2.24792C955.28 1.7365 956.744 1.70642 958.327 1.97717C959.666 1.61156 960.953 1.80136 962.162 1.97968C962.545 2.03612 962.92 2.09142 963.286 2.12758C965.586 2.36825 967.797 2.51867 970.157 2.39833C971.193 2.33954 972.236 2.28794 973.276 2.2365C974.365 2.18264 975.45 2.12897 976.52 2.06742C976.822 2.05026 977.13 2.03065 977.441 2.01077C979.314 1.89129 981.337 1.7622 983.361 2.0975C984.532 2.29411 986.094 2.22849 987.488 2.16995L987.782 2.15767C989.395 2.09751 990.112 2.0975 990.5 2.30809C991.082 2.26767 991.664 2.2544 992.255 2.24093C992.544 2.23435 992.835 2.22771 993.129 2.21784C993.757 2.21784 994.354 2.21783 994.981 2.24792C996.209 2.06528 997.476 2.10572 998.724 2.14555C1000.15 2.19102 1001.55 2.23571 1002.84 1.94709C1002.85 1.94709 1002.87 1.95112 1002.9 1.95622C1002.95 1.96507 1003.02 1.97717 1003.08 1.97717C1003.48 1.99252 1003.88 2.00984 1004.28 2.02711C1005.46 2.07752 1006.62 2.12758 1007.8 2.12758C1008.99 2.12758 1010.22 2.0975 1011.41 2.03733C1012.02 2.05238 1012.63 2.06742 1013.23 2.08246C1013.84 2.0975 1014.44 2.11254 1015.06 2.12758C1016.22 2.12758 1017.39 2.07718 1018.58 2.0266C1018.98 2.00949 1019.38 1.99237 1019.78 1.97717C1019.82 1.97717 1019.86 1.9656 1019.9 1.95515C1019.95 1.94176 1020 1.93019 1020.01 1.94709C1021.36 2.25656 1022.81 2.20539 1024.29 2.15338C1025.12 2.1245 1025.94 2.09536 1026.77 2.12758C1029.6 1.82675 1032.41 1.88692 1034.98 2.15767H1035.07L1035.37 2.16995C1036.76 2.22849 1038.32 2.29411 1039.49 2.0975C1041.52 1.7622 1043.54 1.89129 1045.41 2.01078C1045.72 2.03065 1046.03 2.05026 1046.33 2.06742C1047.4 2.12897 1048.49 2.18264 1049.58 2.2365C1050.62 2.28794 1051.66 2.33954 1052.7 2.39833C1055.06 2.51867 1057.27 2.33817 1059.57 2.12758C1059.93 2.09155 1060.31 2.03652 1060.69 1.98029C1061.91 1.8018 1063.21 1.61114 1064.53 1.97717C1066.08 1.70642 1067.54 1.7365 1068.92 2.24792C1069.05 2.1959 1069.17 2.13668 1069.28 2.08147C1069.5 1.97703 1069.68 1.88692 1069.87 1.88692C1072.26 1.79667 1074.65 1.70642 1077.01 1.73651C1077.59 1.75109 1078.17 1.85757 1078.75 1.96343C1079.36 2.07594 1079.97 2.18775 1080.57 2.18775C1081.26 2.18775 1081.94 2.0708 1082.62 1.9534C1083.14 1.86453 1083.65 1.77539 1084.18 1.73651C1084.55 1.71685 1085 1.7999 1085.55 1.90179C1085.84 1.95588 1086.16 2.01527 1086.51 2.06742C1087.01 1.90547 1087.58 1.71735 1088.2 1.51246C1088.73 1.33678 1089.29 1.14876 1089.89 0.954334C1090.61 1.16332 1090.38 1.44037 1090.15 1.71899C1089.85 2.08206 1089.54 2.4478 1091.35 2.66908C1091.23 2.69917 1091.11 2.72925 1090.98 2.75933C1090.85 2.78942 1090.72 2.8195 1090.6 2.84959C1089.5 2.84959 1088.39 2.85716 1087.3 2.8647C1086.21 2.8722 1085.12 2.87966 1084.03 2.87966V2.93983C1086.63 2.96992 1089.23 3 1091.83 3C1092.13 3 1092.45 2.91729 1092.76 2.83585C1092.91 2.79698 1093.06 2.75841 1093.2 2.72925C1092.46 2.72925 1092.22 2.54875 1092.58 2.36825C1092.82 2.23579 1093.16 2.12713 1093.54 2.00484C1093.77 1.93273 1094.01 1.85587 1094.25 1.76659C1095.26 2.18775 1096.43 2.15767 1097.65 1.917H1097.68C1101.12 1.28525 1104.56 1.46575 1108.29 1.88692C1108.39 1.85289 1108.49 1.81179 1108.6 1.76895C1109.15 1.5467 1109.81 1.27764 1111.19 1.70642C1111.58 1.83941 1112.43 1.75643 1113.32 1.66964C1113.84 1.61901 1114.37 1.56709 1114.83 1.556C1116.12 1.54096 1117.41 1.54096 1118.7 1.54096C1119.99 1.54097 1121.28 1.54097 1122.57 1.52592C1123.47 1.52592 1124.39 1.45378 1125.16 1.39328C1125.39 1.37565 1125.6 1.359 1125.8 1.34542C1126.34 1.41351 1126.47 1.59255 1126.6 1.7542C1126.75 1.94965 1126.88 2.11966 1127.68 2.03733C1128.42 1.94708 1129.02 1.70642 1129.44 1.34542C1130.37 1.31534 1131.29 1.28526 1132.34 1.25517C1132.29 1.38644 1132.25 1.5018 1132.2 1.64753C1132.18 1.70219 1132.15 1.76111 1132.13 1.82675C1132.56 1.80266 1132.98 1.77856 1133.4 1.75447C1134.03 1.71839 1134.66 1.68232 1135.32 1.64625C1134.97 1.52592 1134.73 1.43567 1134.34 1.28525C1135.52 1.10843 1136.28 1.31339 1136.93 1.49051C1137.06 1.52433 1137.18 1.55714 1137.3 1.58608C1139.41 1.32401 1141.38 1.09012 1143.43 0.857142H1145.41C1146.25 1.12018 1147.06 1.38321 1147.78 1.64625C1149.05 1.5227 1150.32 1.38507 1151.54 1.25263C1152.1 1.19157 1152.65 1.13162 1153.19 1.07467C1153.53 1.08501 1153.87 1.10955 1154.2 1.13366C1154.83 1.17971 1155.45 1.22415 1156 1.16492C1158.36 0.924251 1159.34 0.894172 1162.06 1.13484C1162.24 1.15091 1162.45 1.10687 1162.66 1.06236C1162.84 1.02357 1163.03 0.984425 1163.2 0.984425C1163.48 1.00219 1163.76 1.05145 1164.12 1.1136C1164.36 1.15667 1164.65 1.20592 1164.99 1.25517L1165.13 1.2309C1166.2 1.05005 1167.68 0.798816 1169.11 1.34542C1170.37 1.20089 1171.61 1.25165 1172.85 1.30224C1173.68 1.33588 1174.5 1.36945 1175.32 1.34542C1175.7 1.33735 1176.07 1.31847 1176.43 1.2998C1177.43 1.24882 1178.39 1.19936 1179.42 1.3755C1179.96 1.45553 1180.43 1.37376 1180.95 1.28424C1181.4 1.2055 1181.89 1.12076 1182.49 1.13484C1183.71 1.1566 1184.92 1.26883 1186.13 1.3805C1188.25 1.57764 1190.36 1.77303 1192.47 1.46576C1194.52 1.17158 1196.4 1.28156 1198.32 1.39414C1198.56 1.4082 1198.8 1.42231 1199.04 1.43567C1199.87 1.47542 1200.69 1.5677 1201.51 1.66044C1201.93 1.70808 1202.35 1.75584 1202.78 1.79667C1203.32 1.55601 1203.79 1.34543 1204.48 1.04459C1204.93 1.46576 1205.29 1.79667 1205.62 2.0975C1205.88 2.13176 1206.14 2.16602 1206.39 2.19959C1207 2.28112 1207.58 2.35855 1208.16 2.42194C1208.15 2.4241 1208.14 2.42626 1208.13 2.42842H1208.22C1208.2 2.42628 1208.18 2.42412 1208.16 2.42194C1208.36 2.37898 1208.56 2.33601 1208.77 2.29305C1208.98 2.24792 1209.2 2.2028 1209.41 2.15767C1209.53 2.12813 1209.66 2.08893 1209.78 2.0506C1210.05 1.97183 1210.3 1.89676 1210.4 1.917C1212.01 2.24791 1212.82 1.88692 1213.74 1.31534L1213.9 1.51416C1214.07 1.7233 1214.18 1.85342 1214.25 1.94709C1214.71 1.96522 1215.16 1.9888 1215.6 2.01209C1216.64 2.06611 1217.64 2.11852 1218.64 2.0975C1220.1 2.06742 1221.6 1.91701 1223 1.73651C1223.16 1.71755 1223.31 1.69812 1223.47 1.679C1224.52 1.54633 1225.46 1.42832 1226.74 1.58608C1227.42 1.6643 1228.18 1.65303 1228.98 1.64112C1229.71 1.63013 1230.49 1.61858 1231.28 1.67634C1230.77 1.82676 1230.26 1.97717 1229.37 2.24792L1233.58 2.30809C1234.2 1.64625 1235.19 1.25517 1236.06 1.43567C1236.15 1.45431 1236.25 1.47249 1236.35 1.49147C1237.1 1.62561 1238.06 1.79963 1236.59 2.4585C1237.03 2.40698 1237.46 2.36251 1237.83 2.3239C1238.54 2.24979 1239.04 2.19723 1239.04 2.15767C1239.02 1.65037 1239.89 1.61358 1240.71 1.57845C1240.87 1.57191 1241.02 1.56544 1241.17 1.556C1241.56 1.54328 1241.95 1.52518 1242.34 1.5071C1243.79 1.43968 1245.24 1.37258 1246.72 1.58608C1247.1 1.64594 1247.53 1.6264 1247.96 1.60645C1248.19 1.59632 1248.41 1.58608 1248.63 1.58608C1249.12 1.58608 1249.62 1.55681 1250.11 1.52755C1251.28 1.45843 1252.44 1.38938 1253.53 1.70642C1253.65 1.7365 1253.92 1.73651 1254.07 1.73651C1255.65 1.46849 1257.23 1.54159 1258.8 1.61468C1259.71 1.65645 1260.61 1.69822 1261.51 1.67634C1262.58 1.65227 1263.66 1.5512 1264.73 1.45012C1265 1.42484 1265.27 1.39957 1265.54 1.3755C1267.84 1.195 1269.84 1.37551 1271.61 2.15767C1272.32 1.49584 1273.43 1.22508 1275.07 1.58608C1275.03 1.62974 1274.99 1.68045 1274.94 1.74501C1274.9 1.81389 1274.83 1.89855 1274.74 2.00726C1275.03 1.99825 1275.36 1.99733 1275.68 1.99643C1276.43 1.99432 1277.16 1.99229 1277.28 1.88692C1277.92 1.39455 1278.59 1.5049 1279.41 1.64109C1279.54 1.66299 1279.68 1.68557 1279.82 1.70642C1280.45 1.79667 1281.25 1.82675 1281.91 1.76659C1285.44 1.43567 1285.5 1.43567 1287.74 2.69917C1287.59 2.27801 1287.5 2.03733 1287.35 1.64625C1288.4 1.67153 1289.45 1.69209 1290.5 1.71256C1293.18 1.76516 1295.84 1.81716 1298.46 1.94709C1301.19 2.10081 1303.88 2.07819 1306.67 2.05477C1307.7 2.04611 1308.75 2.03733 1309.81 2.03733C1309.66 1.911 1309.53 1.81087 1309.42 1.72166C1309.29 1.61967 1309.18 1.53195 1309.07 1.43567C1309.16 1.43567 1309.27 1.42334 1309.37 1.41263C1309.49 1.39969 1309.59 1.38912 1309.6 1.40559C1310.49 1.96783 1311.98 2.07414 1313.55 2.18563C1313.83 2.20538 1314.11 2.22528 1314.38 2.24792L1314.39 2.2451C1314.62 2.03545 1314.86 1.82581 1315.07 1.61617C1316.5 1.70642 1320.87 1.73651 1321.37 1.67634C1322.44 1.59359 1323.43 1.71317 1324.43 1.83507C1325.62 1.97907 1326.84 2.12629 1328.24 1.94709C1330.01 1.71887 1331.96 1.83265 1333.91 1.94609C1334.27 1.96723 1334.63 1.98836 1335 2.00726C1336.46 2.10811 1338.01 1.97904 1339.72 1.83769C1340.56 1.76823 1341.43 1.69581 1342.35 1.64625C1341.96 1.88692 1341.69 2.12758 1341.63 2.33816C1342.55 2.278 1343.54 2.24792 1344.56 2.24792C1344.68 2.24792 1344.79 2.25544 1344.9 2.26296C1345.01 2.27048 1345.12 2.27801 1345.24 2.27801C1345.87 2.39834 1346.44 2.54875 1346.98 2.78942C1347.45 3.03008 1349.37 3 1350.38 2.87966C1351.7 2.69916 1351.37 2.21783 1350.5 1.64625C1351.41 1.69539 1352.28 1.7638 1353.11 1.82945C1354.83 1.96473 1356.4 2.08828 1357.85 2.00726L1358.24 1.98139C1360.42 1.83777 1362.63 1.69174 1364.6 1.94709C1366.01 2.12629 1367.22 1.97907 1368.41 1.83507C1369.42 1.71317 1370.4 1.59359 1371.47 1.67634C1371.98 1.70642 1376.34 1.70642 1377.77 1.61617C1377.89 1.72146 1378.01 1.82675 1378.12 1.93204C1378.23 2.03733 1378.34 2.14263 1378.46 2.24792C1378.74 2.22528 1379.02 2.20537 1379.3 2.18563C1380.86 2.07414 1382.35 1.96783 1383.24 1.40559C1383.26 1.38912 1383.35 1.39969 1383.47 1.41263C1383.57 1.42334 1383.68 1.43567 1383.78 1.43567C1383.67 1.53195 1383.56 1.61967 1383.43 1.72166C1383.31 1.81087 1383.19 1.911 1383.03 2.03733C1384.03 2.03733 1385.01 2.04311 1385.98 2.04882C1388.84 2.06567 1391.59 2.08192 1394.38 1.94709C1397.01 1.81716 1399.66 1.76516 1402.35 1.71257C1403.39 1.69209 1404.44 1.67153 1405.5 1.64625C1405.35 2.03733 1405.26 2.27801 1405.11 2.69917C1407.31 1.45698 1407.41 1.46511 1410.76 1.7516L1410.93 1.76659C1411.59 1.82675 1412.4 1.79667 1413.02 1.70642C1413.2 1.68523 1413.37 1.65939 1413.53 1.6343C1414.29 1.51686 1414.95 1.41596 1415.56 1.88692C1415.69 1.99229 1416.42 1.99432 1417.17 1.99643C1417.49 1.99733 1417.82 1.99825 1418.1 2.00726C1418.01 1.89855 1417.95 1.81389 1417.9 1.74501C1417.85 1.68045 1417.82 1.62974 1417.77 1.58608C1419.42 1.22508 1420.52 1.49584 1421.24 2.15767C1423 1.40559 1425 1.22508 1427.3 1.3755C1427.84 1.4116 1428.38 1.45733 1428.92 1.50306C1429.72 1.57165 1430.53 1.64024 1431.34 1.67634C1432.24 1.69822 1433.14 1.65643 1434.05 1.61465C1435.63 1.54156 1437.22 1.46853 1438.78 1.73651C1438.92 1.76659 1439.19 1.76658 1439.31 1.70642C1440.4 1.38938 1441.57 1.45843 1442.74 1.52755C1443.23 1.55681 1443.72 1.58608 1444.21 1.58608C1444.42 1.58608 1444.64 1.5927 1444.86 1.59935C1445.3 1.61275 1445.74 1.6263 1446.12 1.58608C1447.59 1.37233 1449.05 1.43983 1450.51 1.50733C1450.9 1.52533 1451.29 1.54334 1451.68 1.556C1451.77 1.55881 1451.86 1.5611 1451.95 1.56342C1452.83 1.58598 1453.86 1.61221 1453.8 2.15767C1453.8 2.19723 1454.31 2.24979 1455.02 2.3239C1455.38 2.36251 1455.81 2.40698 1456.25 2.4585C1454.79 1.79963 1455.75 1.62561 1456.49 1.49147C1456.6 1.47249 1456.7 1.45431 1456.79 1.43567C1457.65 1.25517 1458.64 1.64625 1459.27 2.30809L1463.48 2.24792C1462.9 2.07774 1462.49 1.9551 1462.15 1.85012C1461.94 1.78808 1461.76 1.73221 1461.57 1.67634C1462.34 1.61863 1463.12 1.63011 1463.86 1.64109C1464.66 1.65302 1465.42 1.66436 1466.11 1.58608C1467.41 1.42604 1468.38 1.5498 1469.43 1.68476C1469.57 1.70202 1469.7 1.71946 1469.84 1.73651C1471.25 1.91701 1472.71 2.06742 1474.2 2.0975C1475.21 2.11852 1476.21 2.06611 1477.24 2.01209C1477.69 1.9888 1478.14 1.96522 1478.6 1.94709C1478.69 1.82676 1478.84 1.64626 1479.1 1.31534C1480.03 1.88692 1480.84 2.278 1482.45 1.917C1482.56 1.89476 1482.87 1.98758 1483.15 2.07396C1483.25 2.10445 1483.35 2.13413 1483.44 2.15767C1483.84 2.24542 1484.25 2.33317 1484.68 2.42093C1484.67 2.42341 1484.65 2.42591 1484.63 2.42842H1484.72C1484.71 2.42592 1484.7 2.42342 1484.68 2.42093C1485.13 2.35667 1485.6 2.30081 1486.06 2.24389C1486.45 2.1975 1486.84 2.15041 1487.23 2.0975C1487.56 1.79667 1487.92 1.46576 1488.36 1.04459C1488.65 1.1705 1488.9 1.2806 1489.13 1.38372C1489.45 1.52697 1489.74 1.65674 1490.07 1.79667C1490.49 1.75584 1490.92 1.70809 1491.34 1.66045C1492.16 1.5677 1492.97 1.47542 1493.8 1.43567C1494.04 1.42231 1494.28 1.4082 1494.52 1.39414C1496.45 1.28156 1498.33 1.17158 1500.37 1.46576C1502.51 1.75389 1504.62 1.56367 1506.74 1.37284C1507.94 1.26481 1509.14 1.15659 1510.35 1.13484C1510.96 1.12093 1511.44 1.20984 1511.89 1.29168C1512.41 1.38692 1512.88 1.47258 1513.43 1.3755C1514.48 1.19949 1515.43 1.24875 1516.41 1.29968C1516.78 1.3184 1517.14 1.33734 1517.52 1.34542C1518.34 1.36945 1519.17 1.33588 1519.99 1.30224C1521.23 1.25165 1522.48 1.20089 1523.73 1.34542C1525.18 0.791343 1526.71 1.05707 1527.76 1.23828L1527.86 1.25517C1528.06 1.21881 1528.24 1.18421 1528.41 1.15264C1528.92 1.05361 1529.29 0.984425 1529.65 0.984425C1529.82 0.984425 1530 1.02357 1530.19 1.06236C1530.4 1.10687 1530.61 1.15091 1530.78 1.13484C1533.5 0.894172 1534.49 0.924251 1536.85 1.16492C1537.4 1.22415 1538.01 1.17971 1538.65 1.13366C1538.98 1.10955 1539.32 1.08501 1539.66 1.07467C1540.23 1.1357 1540.83 1.19674 1541.43 1.25893C1542.61 1.38068 1543.84 1.50687 1545.06 1.64625C1545.79 1.41177 1546.6 1.14873 1547.45 0.857142H1549.42C1551.44 1.09012 1553.41 1.32401 1555.52 1.58608C1555.65 1.55439 1555.78 1.51714 1555.92 1.47856C1556.57 1.29737 1557.32 1.08684 1558.48 1.28525C1558.12 1.40559 1557.88 1.49583 1557.49 1.64625C1558.15 1.68232 1558.78 1.71839 1559.41 1.75447C1559.84 1.77856 1560.26 1.80266 1560.69 1.82675C1560.66 1.76111 1560.64 1.70219 1560.62 1.64753C1560.56 1.5018 1560.52 1.38644 1560.48 1.25517C1561.52 1.28526 1562.45 1.31534 1563.38 1.34542C1563.79 1.67634 1564.39 1.94708 1565.14 2.03733C1565.94 2.11966 1566.07 1.94965 1566.22 1.7542C1566.34 1.59256 1566.48 1.41351 1567.02 1.34542C1567.24 1.36021 1567.48 1.37864 1567.73 1.39803C1568.49 1.45749 1569.37 1.52592 1570.25 1.52592C1571.53 1.54097 1572.82 1.54097 1574.12 1.54096C1575.41 1.54096 1576.7 1.54096 1577.98 1.556C1578.5 1.556 1579.1 1.61201 1579.68 1.66538C1580.5 1.74173 1581.26 1.81266 1581.63 1.70642C1583.01 1.27765 1583.67 1.54668 1584.22 1.76894C1584.32 1.81178 1584.42 1.85289 1584.53 1.88692C1588.29 1.46575 1591.7 1.28525 1595.13 1.917H1595.16C1596.39 2.15767 1597.55 2.18775 1598.57 1.76659C1598.75 1.82705 1598.93 1.88256 1599.11 1.93666C1599.55 2.07099 1599.96 2.19669 1600.24 2.36825C1600.57 2.57884 1600.33 2.72925 1599.61 2.72925C1599.76 2.75841 1599.9 2.79698 1600.05 2.83585C1600.37 2.91729 1600.68 3 1600.99 3C1603.58 3 1606.18 2.96992 1608.78 2.93983V2.87966C1607.69 2.87966 1606.59 2.87214 1605.5 2.86462C1604.4 2.8571 1603.3 2.84959 1602.21 2.84959C1602.09 2.8195 1601.96 2.78942 1601.84 2.75933C1601.71 2.72925 1601.58 2.69917 1601.46 2.66908C1603.28 2.44719 1602.97 2.07033 1602.66 1.70338C1602.43 1.42359 1602.2 1.14955 1602.93 0.954334C1604.18 1.3755 1605.35 1.76659 1606.3 2.06742C1606.68 2.01266 1607.02 1.94594 1607.32 1.88613C1607.85 1.78165 1608.27 1.69824 1608.63 1.73651C1609.18 1.7761 1609.72 1.86779 1610.24 1.95826C1610.92 2.07401 1611.58 2.18775 1612.25 2.18775C1612.87 2.18775 1613.48 2.07462 1614.09 1.96144C1614.66 1.85624 1615.23 1.751 1615.8 1.73651C1618.16 1.70642 1620.55 1.79667 1622.94 1.88692C1623.14 1.88692 1623.32 1.97701 1623.53 2.08143C1623.64 2.13666 1623.76 2.19589 1623.9 2.24792C1625.24 1.7365 1626.71 1.70642 1628.29 1.97717C1629.63 1.61156 1630.92 1.80136 1632.12 1.97968C1632.51 2.03612 1632.88 2.09142 1633.25 2.12758C1635.55 2.36825 1637.76 2.51867 1640.12 2.39833C1641.16 2.33954 1642.2 2.28793 1643.24 2.23649C1644.33 2.18264 1645.41 2.12897 1646.48 2.06742C1646.78 2.05026 1647.09 2.03065 1647.4 2.01078C1649.28 1.89129 1651.3 1.76219 1653.32 2.0975C1654.49 2.29411 1656.06 2.22849 1657.45 2.16995L1657.74 2.15767H1657.83C1660.4 1.88692 1663.21 1.82675 1666.05 2.12758C1666.92 2.08194 1667.8 2.10987 1668.67 2.13751C1670.1 2.18274 1671.5 2.22718 1672.8 1.94709C1672.81 1.94709 1672.83 1.95112 1672.86 1.95623C1672.91 1.96508 1672.98 1.97717 1673.04 1.97717C1673.44 1.99252 1673.85 2.00984 1674.25 2.02711C1675.42 2.07752 1676.58 2.12758 1677.76 2.12758C1678.51 2.12758 1679.25 2.09751 1680 2.06742V0ZM1635.62 0.857142H1635.8C1635.74 0.868986 1635.67 0.881269 1635.61 0.894166C1635.61 0.881443 1635.62 0.869104 1635.62 0.857142ZM1591.24 0.857142H1592.76C1591.89 1.40451 1591.67 1.38202 1590.5 0.894166C1590.74 0.884336 1590.99 0.871295 1591.24 0.857142ZM1586.87 0.857142H1590.16C1590.24 0.868507 1590.31 0.880835 1590.38 0.894166C1589.23 1.28126 1587.94 1.2014 1586.44 1.10835C1586.07 1.0857 1585.69 1.06226 1585.3 1.04459L1585.57 1.0114C1586.02 0.9548 1586.45 0.901192 1586.87 0.857142ZM1365.61 0.857142H1362.04C1363.23 0.984094 1364.42 0.932392 1365.61 0.857142ZM1331.66 0.857142H1328.09C1329.29 0.932393 1330.48 0.984095 1331.66 0.857142ZM1103.55 0.857142H1106.84C1107.26 0.901197 1107.69 0.954813 1108.14 1.01142L1108.41 1.04459C1108.01 1.06252 1107.62 1.08637 1107.25 1.10933C1105.74 1.20195 1104.48 1.27991 1103.33 0.894166C1103.4 0.880835 1103.48 0.868507 1103.55 0.857142ZM1100.95 0.857142H1102.47C1102.72 0.871295 1102.97 0.884336 1103.21 0.894166C1102.04 1.38202 1101.83 1.40451 1100.95 0.857142ZM1057.91 0.857142H1058.09C1058.09 0.869104 1058.1 0.881443 1058.1 0.894166C1058.04 0.881269 1057.98 0.868986 1057.91 0.857142ZM965.447 0.857142H965.626C965.564 0.868986 965.501 0.881269 965.437 0.894166C965.44 0.881443 965.444 0.869104 965.447 0.857142ZM921.072 0.857142H922.583C921.684 1.40451 921.468 1.38202 920.329 0.894166C920.573 0.884336 920.82 0.871295 921.072 0.857142ZM916.697 0.857142H919.992C920.064 0.868507 920.136 0.880835 920.209 0.894166C919.056 1.28126 917.768 1.2014 916.266 1.10835C915.901 1.0857 915.523 1.06226 915.131 1.04459L915.398 1.0114C915.852 0.9548 916.282 0.901192 916.697 0.857142ZM695.433 0.857142H691.852C693.039 0.984095 694.235 0.932392 695.433 0.857142ZM657.483 0.857142H653.903C655.1 0.932392 656.296 0.984095 657.483 0.857142ZM429.344 0.857142H432.638C433.053 0.901191 433.483 0.954798 433.938 1.0114L434.205 1.04459C433.801 1.06252 433.414 1.08637 433.042 1.10933C431.539 1.20196 430.275 1.2799 429.126 0.894166C429.199 0.880835 429.271 0.868507 429.344 0.857142ZM426.748 0.857142H428.263C428.516 0.871295 428.763 0.884336 429.007 0.894166C427.838 1.38202 427.621 1.40451 426.748 0.857142ZM383.71 0.857142H383.885C383.889 0.869104 383.894 0.881443 383.898 0.894166C383.834 0.881269 383.772 0.868986 383.71 0.857142ZM291.245 0.857142H291.421C291.359 0.868986 291.296 0.881269 291.232 0.894166C291.237 0.881443 291.241 0.869104 291.245 0.857142ZM246.868 0.857142H248.382C247.509 1.40451 247.292 1.38202 246.124 0.894166C246.368 0.884336 246.615 0.871295 246.868 0.857142ZM242.492 0.857142H245.787C245.859 0.868507 245.932 0.880835 246.004 0.894166C244.855 1.2799 243.591 1.20196 242.089 1.10933C241.716 1.08637 241.329 1.06252 240.926 1.04459C241.016 1.03345 241.105 1.02236 241.193 1.01139C241.647 0.954797 242.078 0.901191 242.492 0.857142ZM21.246 0.857142H17.675C18.8571 0.984095 20.0431 0.932392 21.246 0.857142ZM251.687 1.80506C252.03 1.7808 252.431 1.75239 253.025 1.70642C251.859 1.58608 251.8 1.58609 251.382 1.82675C251.48 1.81966 251.581 1.81256 251.687 1.80506ZM423.444 1.80507C423.55 1.81256 423.65 1.81966 423.749 1.82675C423.331 1.58609 423.271 1.58608 422.106 1.70642C422.699 1.75239 423.101 1.78081 423.444 1.80507ZM925.862 1.80504C926.205 1.78078 926.606 1.75237 927.199 1.70642C926.064 1.58608 926.004 1.58609 925.556 1.82675L925.862 1.80504ZM1097.65 1.80502L1097.95 1.82675C1097.54 1.58609 1097.45 1.58608 1096.31 1.70642C1096.9 1.75236 1097.31 1.78076 1097.65 1.80502ZM1597.4 1.70642C1596.62 1.76658 1596.18 1.79667 1595.76 1.82675C1596.18 1.58609 1596.24 1.58608 1597.4 1.70642ZM267.662 1.02955C267.483 1.03707 267.304 1.04459 267.125 1.04459C267.125 1.07468 267.132 1.09724 267.14 1.1198C267.147 1.14236 267.155 1.16492 267.155 1.19501C267.334 1.19501 267.513 1.18748 267.692 1.17996C267.872 1.17244 268.051 1.16492 268.23 1.16492C268.23 1.13483 268.222 1.11227 268.215 1.08971C268.208 1.06715 268.2 1.04459 268.2 1.0145C268.021 1.0145 267.842 1.02203 267.662 1.02955ZM407.991 1.1198C407.998 1.09724 408.006 1.07468 408.006 1.04459C407.648 1.01451 407.289 1.0145 406.931 1.0145C406.931 1.04459 406.923 1.06715 406.916 1.08971C406.908 1.11227 406.901 1.13483 406.901 1.16492C407.08 1.16492 407.259 1.17244 407.438 1.17996C407.618 1.18748 407.797 1.19501 407.976 1.19501C407.976 1.16492 407.984 1.14236 407.991 1.1198ZM1082.2 1.1198C1082.2 1.09724 1082.21 1.07468 1082.21 1.04459C1081.85 1.01451 1081.49 1.0145 1081.14 1.0145C1081.14 1.04459 1081.13 1.06715 1081.12 1.08971C1081.11 1.11227 1081.11 1.13483 1081.11 1.16492C1081.28 1.16492 1081.46 1.17244 1081.64 1.17996C1081.82 1.18748 1082 1.19501 1082.18 1.19501C1082.18 1.16492 1082.19 1.14236 1082.2 1.1198ZM941.897 1.17996C942.076 1.17244 942.255 1.16492 942.435 1.16492C942.405 1.10475 942.405 1.04459 942.405 1.0145C942.225 1.0145 942.046 1.02203 941.867 1.02955C941.688 1.03707 941.509 1.04459 941.329 1.04459C941.329 1.07468 941.337 1.09724 941.344 1.1198C941.352 1.14236 941.359 1.16492 941.359 1.19501C941.538 1.19501 941.718 1.18748 941.897 1.17996ZM1612.07 1.17996C1612.25 1.17244 1612.43 1.16492 1612.61 1.16492C1612.58 1.10475 1612.58 1.04459 1612.58 1.0145C1612.4 1.0145 1612.22 1.02203 1612.04 1.02955C1611.86 1.03707 1611.68 1.04459 1611.5 1.04459C1611.5 1.07468 1611.51 1.09724 1611.52 1.1198C1611.52 1.14236 1611.53 1.16492 1611.53 1.19501C1611.71 1.19501 1611.89 1.18748 1612.07 1.17996Z" fill="#E4F5FC"/>
</svg>